<svg xmlns="http://www.w3.org/2000/svg" xmlns:xlink="http://www.w3.org/1999/xlink" version="1.1" x="0px" y="0px" viewBox="0 0 100 100" enable-background="new 0 0 100 100" xml:space="preserve"><g><path fill="#000000" d="M42.5,69.592c0-0.603-0.489-1.092-1.092-1.092H26.592c-0.603,0-1.092,0.489-1.092,1.092v1.816   c0,0.603,0.489,1.092,1.092,1.092h14.816c0.603,0,1.092-0.489,1.092-1.092V69.592z"></path><path fill="#000000" d="M85.771,8.663c-2.642-4.529-5.408-7.206-8.457-8.184c-3.001-0.963-5.564-0.033-7.231,0.75   c-0.871,0.409-1.648,0.81-2.402,1.197c-3.869,1.994-6.925,3.569-18.182,3.569c-10.353,0-13.738-1.634-17.659-3.525   c-1.175-0.567-2.391-1.154-3.828-1.718c-1.987-0.779-5.974-1.359-10.337,3.515c-2.16,2.414-3.478,5.119-3.533,5.233   c-0.561,1.163-0.072,2.562,1.091,3.122c0.327,0.158,0.674,0.233,1.015,0.233c0.869,0,1.705-0.487,2.107-1.323   c0.039-0.08,4.047-7.956,7.95-6.426c1.272,0.499,2.308,1.021,3.454,1.575C33.459,8.469,37.5,10.31,46.5,10.625v11.022   c-1,0.09-1.99,0.31-2.863,0.848c-1.574,0.972-2.455,2.69-3.006,5.748c-0.971,5.399-0.958,15.976-0.958,37.045   c0,0.947,0.966,1.715,1.914,1.715s1.914-0.768,1.914-1.715c0-0.309,0-0.788,0-0.788h3v33.349c0,1.205,1.072,1.651,2.277,1.651   h0.469c1.205,0,2.254-0.446,2.254-1.651V64.5h3c0,0,0-0.082,0-0.059v0.847c0,0.947,1.053,1.715,2,1.715s2-0.768,2-1.715v-0.847   c0-5.011-0.108-9.941-0.123-13.941h12.74c0.603,0,1.383,0.163,1.383-0.439v-1.871c0-0.603-0.78-1.689-1.383-1.689H58.355   c-0.073-9-0.293-15.133-0.959-18.675c-0.558-2.974-1.693-4.569-3.283-5.509c-1.021-0.604-1.613-0.645-3.613-0.705V10.665   c12-0.135,15.047-1.969,19.145-4.08c0.715-0.369,1.543-0.75,2.337-1.123c1.884-0.885,5.083-2.366,9.704,5.558   c0.65,1.115,2.105,1.492,3.221,0.842S86.422,9.778,85.771,8.663z M54.025,28.563c0.912,4.857,0.936,14.937,0.937,33.937H51.5V29.41   c0-1.205-1.049-2.91-2.254-2.91h-0.469c-1.205,0-2.277,1.705-2.277,2.91V62.5h-3.387c0.002-19,0.037-28.944,0.918-33.843   c0.514-2.855,1.223-3.197,1.455-3.341c0.648-0.4,1.893-0.352,3.467-0.352c1.626,0,2.91-0.072,3.592,0.332   C52.957,25.54,53.56,26.079,54.025,28.563z"></path></g></svg>